<svg xmlns="http://www.w3.org/2000/svg" width="257.303" height="257.282" viewBox="0 0 257.303 257.282"><g transform="translate(-499.351 -1925.719)"><path d="M499.351,2054.385c.284-30.5,9.845-57.7,29.075-81.448a128.205,128.205,0,0,1,27.5-25.161c.784-.537,1.15-.545,1.776.277a8.166,8.166,0,0,0,13.974-8.09c-.384-.921-.187-1.211.625-1.6a129.165,129.165,0,0,1,60.764-12.547,128.2,128.2,0,0,1,82.533,34.335,129.044,129.044,0,0,1,26.368,34.42c.446.839.55,1.269-.439,1.866a8.033,8.033,0,0,0-3.668,8.976,8.376,8.376,0,0,0,7.518,6.21,6.923,6.923,0,0,0,2.9-.426c.673-.243.933-.095,1.171.591a128.89,128.89,0,0,1,7.129,46.953,127.96,127.96,0,0,1-31.747,80.32,129.008,129.008,0,0,1-44.978,33.1c-.967.432-1.292.331-1.712-.68a8.169,8.169,0,0,0-15.339,5.552c.362,1.144-.121,1.283-.957,1.5a134.84,134.84,0,0,1-22.857,3.987,128.15,128.15,0,0,1-98.768-34.123,136.423,136.423,0,0,1-16.05-18.018,1.739,1.739,0,0,1-.134-2.254,7.6,7.6,0,0,0-.309-8.387,7.716,7.716,0,0,0-7.552-3.663,1.411,1.411,0,0,1-1.589-.9,128.223,128.223,0,0,1-13.69-40.954A131.686,131.686,0,0,1,499.351,2054.385Z" fill="#00b32e" opacity="0.8"/><path d="M690.809,1994.407a10.164,10.164,0,0,1,.124,1.134q.009,45.5,0,91c0,.257-.015.513-.023.77-.558.441-1.155.169-1.726.065a28.549,28.549,0,0,0-18.262,2.384c-.517.256-1.088.8-1.719.145a14.679,14.679,0,0,1-.2-3.835c-.038-1.028-.007-2.058-.015-3.086a1.029,1.029,0,0,0-1.177-1.174c-.386,0-.772-.014-1.158-.014h-80.9c-.215,0-.429,0-.643,0-1.576.032-1.685.126-1.7,1.683-.017,2.058-.02,4.116,0,6.173.015,1.4.129,1.494,1.565,1.566.6.03,1.2.022,1.8.022,26.193-.013,52.387.027,78.581-.021a2.88,2.88,0,0,1,1.138.126c.912.637.118,1.028-.264,1.362a34.591,34.591,0,0,0-4.048,3.919,27.536,27.536,0,0,0-6.607,17.913,26.9,26.9,0,0,0,6.076,17.71,27.338,27.338,0,0,0,18.066,10.274c.385.052.909-.087.991.544-.813.013-1.627.036-2.44.036q-55.047,0-110.093,0c-2.456,0-3.433-.94-3.49-3.369-.014-.6,0-1.2,0-1.8q0-84.045,0-168.091a14.523,14.523,0,0,1,.047-1.67,2.726,2.726,0,0,1,2.852-2.547c1.543-.013,3.087,0,4.63,0q44.051,0,88.1,0c.556,0,1.113.03,1.669.046a3,3,0,0,1,.385,2.1q.016,11.754.006,23.506c0,.386-.005.771,0,1.157.032,1.441.125,1.544,1.526,1.573.984.02,1.969.005,2.954.005q10.918,0,21.837,0A3.241,3.241,0,0,1,690.809,1994.407Z" fill="#58dfa8"/><path d="M680.721,2143.069a31.126,31.126,0,0,1-6.086-1.355c-10.712-3.976-17.35-11.472-19.086-22.851-1.451-9.513,1.536-17.705,8.292-24.523.956-.965,2.041-1.8,3.067-2.7a3.961,3.961,0,0,1,2.5-1.54,29.563,29.563,0,0,1,9.729-3.328,29.176,29.176,0,0,1,11.022.439,6.561,6.561,0,0,0,.758.1,29.063,29.063,0,0,1,10.212,5.225c8.816,7.381,12.446,16.84,10.1,28.064-2.31,11.059-9.357,18.077-20.13,21.591C687.614,2143.328,684.19,2142.941,680.721,2143.069Z" fill="#039" opacity="0.5"/><path d="M690.809,1994.407c-9.259.008-18.518,0-27.777.045-1.031.005-1.054-.488-1.053-1.258q.025-13.759.015-27.519c.515-.028.726.408,1.015.7q13.529,13.511,27.041,27.038C690.344,1993.7,690.741,1993.935,690.809,1994.407Z" fill="#fefefe"/><path d="M626.079,2067.968q-20.833,0-41.667.022c-1.075,0-1.453-.183-1.45-1.383q.069-25.719,0-51.438c0-1.19.37-1.388,1.451-1.387q41.732.044,83.463-.005c1.276,0,1.54.408,1.537,1.6q-.054,25.527,0,51.053c0,1.23-.294,1.566-1.544,1.562C653.943,2067.951,640.011,2067.968,626.079,2067.968Z" fill="#fefefe"/><path d="M669.406,2090.1l-2.5,1.54c-.768-.019-1.536-.054-2.3-.054q-39.48,0-78.961,0c-2.649,0-2.649,0-2.649-2.7,0-2.186.023-4.372-.012-6.558-.012-.7.162-1.065.923-.961a4.938,4.938,0,0,0,.642,0q41.667,0,83.334-.03c1.253,0,1.594.316,1.541,1.558C669.32,2085.3,669.4,2087.7,669.406,2090.1Z" fill="#fefefe"/><path d="M615.916,2002.634c-10.5,0-21-.016-31.506.024-1.087,0-1.494-.2-1.448-1.388.1-2.611.047-5.229.021-7.843-.007-.677.114-.965.913-.965q32.083.025,64.166-.023c.88,0,1.069.313,1.056,1.121-.044,2.614-.074,5.231.011,7.843.035,1.081-.366,1.252-1.322,1.25Q631.862,2002.608,615.916,2002.634Z" fill="#fefefe"/><path d="M610.125,2115.764c-8.615,0-17.23-.013-25.844.02-.972,0-1.346-.2-1.314-1.262.081-2.655.055-5.314.009-7.97-.013-.792.224-1.015,1.015-1.015q26.166.031,52.332.006c.679,0,1.005.134.994.911-.039,2.785-.058,5.572,0,8.356.026,1.147-.686.953-1.351.953Q623.047,2115.766,610.125,2115.764Z" fill="#fefefe"/><path d="M697.757,2114.825a14.235,14.235,0,0,1-28.468.17,14.235,14.235,0,1,1,28.468-.17Z" fill="#fefefe"/></g></svg>