<svg xmlns="http://www.w3.org/2000/svg" width="27.986" height="26.572" viewBox="0 0 27.986 26.572"><path d="M1081.692,1751.714l.707,1.008a55.014,55.014,0,0,0-9.605,10.008,68.811,68.811,0,0,0-8.07,12.631l-1.494,1.009a25.322,25.322,0,0,0-2.522,1.916,31.735,31.735,0,0,0-1.15-3.107l-.565-1.311a20.2,20.2,0,0,0-2.249-4.177,5.058,5.058,0,0,0-2.331-1.8q2.18-2.3,3.995-2.3,1.554,0,3.45,4.217l.626,1.413a58.585,58.585,0,0,1,8.757-11.178A49.012,49.012,0,0,1,1081.692,1751.714Z" transform="translate(-1054.413 -1751.714)" fill="#fff"/></svg>